<svg width="25" height="31" viewBox="0 0 25 31" fill="none" xmlns="http://www.w3.org/2000/svg">
<path d="M12.3873 0C8.11833 0 4.64524 3.47309 4.64524 7.74207V12.3873H3.09683C1.38893 12.3873 0 13.7762 0 15.4841V27.8714C0 29.5793 1.38893 30.9683 3.09683 30.9683H21.6778C23.3857 30.9683 24.7746 29.5793 24.7746 27.8714V15.4841C24.7746 13.7762 23.3857 12.3873 21.6778 12.3873H20.1294V7.74207C20.1294 3.47309 16.6563 0 12.3873 0ZM21.6778 15.4841L21.6809 27.8714H3.09683V15.4841H21.6778ZM7.74207 12.3873V7.74207C7.74207 5.18099 9.82623 3.09683 12.3873 3.09683C14.9484 3.09683 17.0325 5.18099 17.0325 7.74207V12.3873H7.74207Z" fill="white"/>
</svg>
