<svg width="49" height="50" viewBox="0 0 49 50" fill="#ffffff" xmlns="http://www.w3.org/2000/svg">
<path d="M42.4998 17.5494C42.4795 16.0266 42.1944 14.5189 41.6573 13.0938C41.1915 11.8918 40.4802 10.8001 39.5686 9.88852C38.657 8.97696 37.5654 8.26558 36.3633 7.79981C34.9565 7.27173 33.4704 6.98619 31.968 6.95534C30.0338 6.86888 29.4206 6.84476 24.5106 6.84476C19.6006 6.84476 18.9713 6.84476 17.0511 6.95534C15.5495 6.98641 14.064 7.27195 12.6579 7.79981C11.4556 8.26525 10.3638 8.97653 9.45218 9.88813C8.54058 10.7997 7.82931 11.8916 7.36387 13.0938C6.83473 14.4995 6.54981 15.9853 6.52141 17.4871C6.43495 19.4233 6.40881 20.0366 6.40881 24.9465C6.40881 29.8565 6.40881 30.4838 6.52141 32.406C6.55157 33.91 6.83507 35.3938 7.36387 36.8033C7.83009 38.0051 8.54189 39.0966 9.4538 40.0078C10.3657 40.919 11.4577 41.63 12.6599 42.0953C14.0622 42.6446 15.5479 42.9506 17.0531 43.0001C18.9894 43.0865 19.6026 43.1126 24.5126 43.1126C29.4226 43.1126 30.0519 43.1126 31.9721 43.0001C33.4743 42.9705 34.9606 42.6856 36.3673 42.1576C37.5691 41.6913 38.6605 40.9797 39.572 40.0682C40.4835 39.1567 41.195 38.0653 41.6613 36.8636C42.1901 35.4561 42.4736 33.9723 42.5038 32.4663C42.5902 30.5321 42.6164 29.9188 42.6164 25.0069C42.6124 20.0969 42.6124 19.4736 42.4998 17.5494V17.5494ZM24.4985 34.2317C19.3634 34.2317 15.2033 30.0717 15.2033 24.9365C15.2033 19.8013 19.3634 15.6413 24.4985 15.6413C26.9638 15.6413 29.328 16.6206 31.0712 18.3638C32.8144 20.107 33.7937 22.4712 33.7937 24.9365C33.7937 27.4017 32.8144 29.766 31.0712 31.5092C29.328 33.2523 26.9638 34.2317 24.4985 34.2317V34.2317ZM34.1637 17.4649C33.879 17.4652 33.597 17.4093 33.3339 17.3005C33.0708 17.1917 32.8318 17.032 32.6304 16.8307C32.4291 16.6294 32.2695 16.3903 32.1606 16.1272C32.0518 15.8642 31.9959 15.5822 31.9962 15.2975C31.9962 15.013 32.0522 14.7313 32.1611 14.4684C32.27 14.2056 32.4296 13.9667 32.6307 13.7656C32.8319 13.5644 33.0707 13.4048 33.3336 13.2959C33.5964 13.1871 33.8782 13.131 34.1627 13.131C34.4472 13.131 34.7289 13.1871 34.9917 13.2959C35.2546 13.4048 35.4934 13.5644 35.6946 13.7656C35.8958 13.9667 36.0553 14.2056 36.1642 14.4684C36.2731 14.7313 36.3291 15.013 36.3291 15.2975C36.3291 16.4958 35.36 17.4649 34.1637 17.4649Z" fill="#ffffff"/>
<path d="M24.4986 30.9744C27.8332 30.9744 30.5365 28.2711 30.5365 24.9365C30.5365 21.6018 27.8332 18.8985 24.4986 18.8985C21.1639 18.8985 18.4606 21.6018 18.4606 24.9365C18.4606 28.2711 21.1639 30.9744 24.4986 30.9744Z" fill="#ffffff"/>
</svg>
