<svg width="30" height="30" viewBox="0 0 30 30" fill="none" xmlns="http://www.w3.org/2000/svg">
<path d="M26.3586 23.1906C25.6334 22.4959 24.9276 21.7813 24.242 21.0476C23.6659 20.4623 23.3191 20.0365 23.3191 20.0365L18.9835 17.9662C20.7193 15.9976 21.6773 13.4634 21.6778 10.8389C21.6778 4.86357 16.8158 0 10.8389 0C4.86202 0 0 4.86357 0 10.8389C0 16.8142 4.86202 21.6778 10.8389 21.6778C13.5687 21.6778 16.057 20.6558 17.9662 18.9851L20.0365 23.3207C20.0365 23.3207 20.4623 23.6675 21.0476 24.2435C21.6468 24.8056 22.435 25.5658 23.1906 26.3602L25.2933 28.5156L26.2286 29.5159L29.5128 26.2317L28.5125 25.2964C27.9256 24.7204 27.1421 23.9555 26.3586 23.1906ZM10.8389 18.581C6.56992 18.581 3.09683 15.1079 3.09683 10.8389C3.09683 6.56992 6.56992 3.09683 10.8389 3.09683C15.1079 3.09683 18.581 6.56992 18.581 10.8389C18.581 15.1079 15.1079 18.581 10.8389 18.581Z" fill="white"/>
</svg>
