<svg width="54" height="67" viewBox="0 0 54 67" fill="none" xmlns="http://www.w3.org/2000/svg">
<path d="M45.0992 35.5188C45.1923 45.5353 53.9035 48.8686 54 48.9111C53.9263 49.1462 52.6081 53.6614 49.4106 58.3252C46.6464 62.3573 43.7776 66.3746 39.2584 66.4578C34.8178 66.5395 33.3899 63.8297 28.313 63.8297C23.2377 63.8297 21.6512 66.3746 17.4477 66.5395C13.0855 66.7043 9.76375 62.1793 6.97663 58.162C1.28151 49.9444 -3.07075 34.941 2.77323 24.8134C5.67639 19.784 10.8646 16.5992 16.4959 16.5175C20.7794 16.436 24.8226 19.3938 27.4412 19.3938C30.0582 19.3938 34.9715 15.8368 40.1367 16.3592C42.299 16.449 48.3687 17.2309 52.2662 22.9248C51.9522 23.1191 45.0238 27.1446 45.0992 35.5188V35.5188ZM36.7536 10.9225C39.0695 8.12465 40.6282 4.22976 40.203 0.35437C36.8648 0.488275 32.8281 2.57454 30.4337 5.37086C28.2878 7.84714 26.4085 11.8106 26.9156 15.6093C30.6364 15.8966 34.4375 13.7222 36.7536 10.9225" fill="white"/>
</svg>
