<svg width="63" height="63" viewBox="0 0 63 63" fill="#ffffff" xmlns="http://www.w3.org/2000/svg">
<path d="M23.4675 49.1006C26.793 49.1215 30.0895 48.482 33.166 47.219C36.2424 45.956 39.0374 44.0948 41.3889 41.7433C43.7404 39.3918 45.6017 36.5967 46.8646 33.5203C48.1276 30.4439 48.7672 27.1474 48.7463 23.8219V22.6603C50.4701 21.3973 51.9621 19.8453 53.1562 18.0731C51.5331 18.783 49.8155 19.2539 48.0572 19.4709C49.9214 18.3601 51.3202 16.6117 51.9947 14.5491C50.2573 15.5914 48.3521 16.3242 46.3641 16.7147C45.0252 15.2881 43.2534 14.3425 41.323 14.0242C39.3926 13.7059 37.4111 14.0327 35.685 14.9539C33.959 15.8752 32.5848 17.3397 31.7749 19.1207C30.9649 20.9016 30.7646 22.8999 31.2047 24.8063C27.6728 24.6329 24.217 23.7176 21.0624 22.1199C17.9078 20.5222 15.125 18.278 12.8953 15.5334C11.771 17.4848 11.4302 19.7905 11.942 21.9837C12.4537 24.1769 13.7797 26.0937 15.6516 27.3459C14.2707 27.2927 12.9218 26.915 11.7141 26.2434V26.3419C11.7018 28.3812 12.3888 30.3631 13.6606 31.9573C14.9323 33.5515 16.7121 34.6617 18.7031 35.1028C17.4188 35.4482 16.0735 35.5021 14.7656 35.2603C15.342 36.9995 16.4424 38.5177 17.9157 39.6069C19.3891 40.696 21.1633 41.3027 22.995 41.3438C19.8631 43.8648 15.9707 45.2525 11.9503 45.2812C11.2454 45.2608 10.5422 45.2017 9.84375 45.1041C13.9131 47.6967 18.6425 49.0636 23.4675 49.0416" fill="#ffffff"/>
</svg>
